<?xml version="1.0" standalone="no"?>
<!DOCTYPE svg PUBLIC "-//W3C//DTD SVG 20010904//EN"
		"http://www.w3.org/TR/2001/REC-SVG-20010904/DTD/svg10.dtd">
<svg version="1.0" xmlns="http://www.w3.org/2000/svg"
	 width="225.000000pt" height="225.000000pt" viewBox="0 0 225.000000 225.000000"
	 preserveAspectRatio="xMidYMid meet">
	<metadata>
		Created by potrace 1.16, written by Peter Selinger 2001-2019
	</metadata>
	<g transform="translate(0.000000,225.000000) scale(0.100000,-0.100000)"
	   fill="#000000" stroke="none">
		<path d="M1017 2238 c-137 -12 -334 -68 -320 -91 4 -6 1 -7 -6 -2 -15 9 -93
-24 -85 -36 3 -5 -3 -6 -12 -2 -11 4 -15 2 -11 -4 4 -6 -1 -10 -11 -9 -9 0
-16 -5 -14 -12 1 -8 -2 -11 -8 -7 -14 9 -139 -82 -150 -108 -5 -12 -9 -16 -9
-8 -1 8 -25 -9 -55 -39 -30 -30 -54 -56 -52 -57 2 -2 -12 -20 -31 -39 -96
-102 -188 -298 -229 -485 -20 -96 -21 -318 -1 -420 85 -425 387 -755 802 -873
567 -162 1172 159 1361 720 41 123 55 217 55 364 0 242 -64 444 -201 639 -48
68 -152 179 -208 224 -156 122 -371 221 -502 229 -25 2 -47 6 -50 9 -9 11
-174 16 -263 7z m720 -624 c-8 -46 -51 -102 -103 -131 -38 -22 -45 -23 -405
-23 -356 0 -367 -1 -393 -21 -38 -30 -57 -73 -58 -131 -1 -42 3 -54 21 -69 22
-18 47 -19 365 -19 194 0 356 -4 377 -10 48 -13 115 -73 130 -115 7 -19 15
-35 19 -35 13 0 10 -125 -4 -181 -21 -81 -56 -138 -122 -198 -88 -81 -84 -80
-602 -83 -428 -3 -452 -2 -452 15 0 29 29 90 58 120 51 53 90 58 496 57 342
-1 369 0 388 17 30 26 48 76 48 130 0 94 5 93 -402 93 -385 0 -392 2 -455 73
-117 133 -51 397 125 503 28 17 49 34 46 37 -3 3 205 6 462 7 l467 1 -6 -37z"/>
	</g>
</svg>